<svg width="120" height="71" viewBox="0 0 120 71" fill="none" xmlns="http://www.w3.org/2000/svg">
<g filter="url(#filter0_bd_1_456)">
<mask id="path-1-outside-1_1_456" maskUnits="userSpaceOnUse" x="58.6239" y="6.99963" width="51" height="32" fill="black">
<rect fill="white" x="58.6239" y="6.99963" width="51" height="32"/>
<path fill-rule="evenodd" clip-rule="evenodd" d="M94.8142 22.1367C94.8142 22.5953 94.7909 23.0484 94.7453 23.4949C96.1508 22.2648 97.9863 21.5202 99.9945 21.5202C104.416 21.5202 108.001 25.1299 108.001 29.5827C108.001 34.0355 104.416 37.6452 99.9945 37.6452C99.9858 37.6452 99.9771 37.6452 99.9684 37.6451H68.8893C68.8813 37.6452 68.8734 37.6452 68.8654 37.6452C68.8574 37.6452 68.8494 37.6452 68.8414 37.6451H68.8183V37.645C64.2883 37.6195 60.6239 33.9135 60.6239 29.3456C60.6239 24.7944 64.2614 21.0989 68.7684 21.0465C69.3186 14.3012 74.9291 8.99963 81.7691 8.99963C88.9737 8.99963 94.8142 14.8813 94.8142 22.1367Z"/>
</mask>
<path fill-rule="evenodd" clip-rule="evenodd" d="M94.8142 22.1367C94.8142 22.5953 94.7909 23.0484 94.7453 23.4949C96.1508 22.2648 97.9863 21.5202 99.9945 21.5202C104.416 21.5202 108.001 25.1299 108.001 29.5827C108.001 34.0355 104.416 37.6452 99.9945 37.6452C99.9858 37.6452 99.9771 37.6452 99.9684 37.6451H68.8893C68.8813 37.6452 68.8734 37.6452 68.8654 37.6452C68.8574 37.6452 68.8494 37.6452 68.8414 37.6451H68.8183V37.645C64.2883 37.6195 60.6239 33.9135 60.6239 29.3456C60.6239 24.7944 64.2614 21.0989 68.7684 21.0465C69.3186 14.3012 74.9291 8.99963 81.7691 8.99963C88.9737 8.99963 94.8142 14.8813 94.8142 22.1367Z" fill="url(#paint0_linear_1_456)" shape-rendering="crispEdges"/>
<path d="M94.7453 23.4949L93.4247 23.3602L93.0826 26.7142L95.6196 24.4938L94.7453 23.4949ZM99.9684 37.6451L99.9728 36.3176H99.9684V37.6451ZM68.8893 37.6451V36.3176L68.8855 36.3176L68.8893 37.6451ZM68.8414 37.6451L68.8452 36.3176H68.8414V37.6451ZM68.8183 37.6451H67.4908V38.9726H68.8183V37.6451ZM68.8183 37.645H70.1458V36.325L68.8258 36.3176L68.8183 37.645ZM68.7684 21.0465L68.7838 22.3739L69.9931 22.3599L70.0914 21.1544L68.7684 21.0465ZM96.066 23.6296C96.1161 23.1384 96.1417 22.6404 96.1417 22.1367H93.4867C93.4867 22.5503 93.4657 22.9584 93.4247 23.3602L96.066 23.6296ZM99.9945 20.1927C97.6516 20.1927 95.5084 21.0629 93.8711 22.496L95.6196 24.4938C96.7931 23.4668 98.321 22.8477 99.9945 22.8477V20.1927ZM109.328 29.5827C109.328 24.4056 105.158 20.1927 99.9945 20.1927V22.8477C103.674 22.8477 106.673 25.8542 106.673 29.5827H109.328ZM99.9945 38.9727C105.158 38.9727 109.328 34.7598 109.328 29.5827H106.673C106.673 33.3111 103.674 36.3177 99.9945 36.3177V38.9727ZM99.9641 38.9726C99.9743 38.9726 99.9845 38.9727 99.9945 38.9727V36.3177C99.9872 36.3177 99.9799 36.3177 99.9728 36.3176L99.9641 38.9726ZM99.9684 36.3176H68.8893V38.9726H99.9684V36.3176ZM68.8654 38.9727C68.8746 38.9727 68.8839 38.9726 68.8931 38.9726L68.8855 36.3176C68.8788 36.3177 68.8721 36.3177 68.8654 36.3177V38.9727ZM68.8376 38.9726C68.8469 38.9726 68.8561 38.9727 68.8654 38.9727V36.3177C68.8586 36.3177 68.8519 36.3177 68.8452 36.3176L68.8376 38.9726ZM68.8414 36.3176H68.8183V38.9726H68.8414V36.3176ZM70.1458 37.6451V37.645H67.4908V37.6451H70.1458ZM59.2964 29.3456C59.2964 34.6354 63.5423 38.9428 68.8108 38.9725L68.8258 36.3176C65.0343 36.2962 61.9514 33.1916 61.9514 29.3456H59.2964ZM68.7529 19.7191C63.5111 19.78 59.2964 24.0751 59.2964 29.3456H61.9514C61.9514 25.5137 65.0117 22.4177 68.7838 22.3739L68.7529 19.7191ZM81.7691 7.67214C74.2244 7.67214 68.0506 13.5177 67.4453 20.9386L70.0914 21.1544C70.5866 15.0846 75.6338 10.3271 81.7691 10.3271V7.67214ZM96.1417 22.1367C96.1417 14.157 89.7157 7.67214 81.7691 7.67214V10.3271C88.2318 10.3271 93.4867 15.6057 93.4867 22.1367H96.1417Z" fill="url(#paint1_linear_1_456)" mask="url(#path-1-outside-1_1_456)"/>
</g>
<g filter="url(#filter1_bd_1_456)">
<mask id="path-3-outside-2_1_456" maskUnits="userSpaceOnUse" x="10" y="7.62854" width="82" height="51" fill="black">
<rect fill="white" x="10" y="7.62854" width="82" height="51"/>
<path fill-rule="evenodd" clip-rule="evenodd" d="M68.3788 31.3532C68.3788 32.1116 68.3404 32.8608 68.2653 33.5991C70.5828 31.565 73.6095 30.3336 76.921 30.3336C84.2121 30.3336 90.1227 36.303 90.1227 43.6665C90.1227 51.03 84.2121 56.9993 76.921 56.9993L25.5123 56.9993V56.9991C18.0425 56.9569 12 50.8283 12 43.2743C12 35.7482 17.9982 29.6369 25.43 29.5503C26.3374 18.3956 35.5889 9.62854 46.8679 9.62854C58.7481 9.62854 68.3788 19.355 68.3788 31.3532Z"/>
</mask>
<path fill-rule="evenodd" clip-rule="evenodd" d="M68.3788 31.3532C68.3788 32.1116 68.3404 32.8608 68.2653 33.5991C70.5828 31.565 73.6095 30.3336 76.921 30.3336C84.2121 30.3336 90.1227 36.303 90.1227 43.6665C90.1227 51.03 84.2121 56.9993 76.921 56.9993L25.5123 56.9993V56.9991C18.0425 56.9569 12 50.8283 12 43.2743C12 35.7482 17.9982 29.6369 25.43 29.5503C26.3374 18.3956 35.5889 9.62854 46.8679 9.62854C58.7481 9.62854 68.3788 19.355 68.3788 31.3532Z" fill="url(#paint2_linear_1_456)" shape-rendering="crispEdges"/>
<path d="M68.2653 33.5991L66.9446 33.4648L66.6029 36.8245L69.141 34.5968L68.2653 33.5991ZM76.921 56.9993V55.6718V56.9993ZM25.5123 56.9993H24.1848V58.3268H25.5123L25.5123 56.9993ZM25.5123 56.9991H26.8398V55.6791L25.5198 55.6716L25.5123 56.9991ZM25.43 29.5503L25.4455 30.8777L26.655 30.8636L26.7531 29.6579L25.43 29.5503ZM69.5859 33.7335C69.6656 32.9506 69.7063 32.1565 69.7063 31.3532H67.0513C67.0513 32.0666 67.0151 32.7711 66.9446 33.4648L69.5859 33.7335ZM76.921 29.0061C73.2737 29.0061 69.9389 30.3639 67.3896 32.6015L69.141 34.5968C71.2267 32.7661 73.9454 31.6611 76.921 31.6611V29.0061ZM91.4502 43.6665C91.4502 35.5822 84.9576 29.0061 76.921 29.0061V31.6611C83.4666 31.6611 88.7952 37.0237 88.7952 43.6665H91.4502ZM76.921 58.3268C84.9576 58.3268 91.4502 51.7507 91.4502 43.6665H88.7952C88.7952 50.3093 83.4666 55.6718 76.921 55.6718V58.3268ZM76.921 55.6718L25.5123 55.6718L25.5123 58.3268L76.921 58.3268V55.6718ZM26.8398 56.9993V56.9991H24.1848V56.9993H26.8398ZM10.6725 43.2743C10.6725 51.5466 17.293 58.2802 25.5048 58.3266L25.5198 55.6716C18.7921 55.6336 13.3275 50.11 13.3275 43.2743H10.6725ZM25.4145 28.2229C17.2444 28.318 10.6725 35.0324 10.6725 43.2743H13.3275C13.3275 36.4639 18.752 30.9557 25.4455 30.8777L25.4145 28.2229ZM46.8679 8.30105C34.8809 8.30105 25.069 17.6154 24.1069 29.4427L26.7531 29.6579C27.6058 19.1757 36.2969 10.956 46.8679 10.956V8.30105ZM69.7063 31.3532C69.7063 18.6343 59.4936 8.30105 46.8679 8.30105V10.956C58.0026 10.956 67.0513 20.0758 67.0513 31.3532H69.7063Z" fill="url(#paint3_linear_1_456)" mask="url(#path-3-outside-2_1_456)"/>
</g>
<defs>
<filter id="filter0_bd_1_456" x="49.3402" y="0.37092" width="69.944" height="51.2129" filterUnits="userSpaceOnUse" color-interpolation-filters="sRGB">
<feFlood flood-opacity="0" result="BackgroundImageFix"/>
<feGaussianBlur in="BackgroundImageFix" stdDeviation="3.31873"/>
<feComposite in2="SourceAlpha" operator="in" result="effect1_backgroundBlur_1_456"/>
<feColorMatrix in="SourceAlpha" type="matrix" values="0 0 0 0 0 0 0 0 0 0 0 0 0 0 0 0 0 0 127 0" result="hardAlpha"/>
<feOffset dy="2.65498"/>
<feGaussianBlur stdDeviation="4.97809"/>
<feComposite in2="hardAlpha" operator="out"/>
<feColorMatrix type="matrix" values="0 0 0 0 0 0 0 0 0 0 0 0 0 0 0 0 0 0 0.1 0"/>
<feBlend mode="normal" in2="effect1_backgroundBlur_1_456" result="effect2_dropShadow_1_456"/>
<feBlend mode="normal" in="SourceGraphic" in2="effect2_dropShadow_1_456" result="shape"/>
</filter>
<filter id="filter1_bd_1_456" x="0.716305" y="0.999826" width="100.69" height="69.9382" filterUnits="userSpaceOnUse" color-interpolation-filters="sRGB">
<feFlood flood-opacity="0" result="BackgroundImageFix"/>
<feGaussianBlur in="BackgroundImageFix" stdDeviation="3.31873"/>
<feComposite in2="SourceAlpha" operator="in" result="effect1_backgroundBlur_1_456"/>
<feColorMatrix in="SourceAlpha" type="matrix" values="0 0 0 0 0 0 0 0 0 0 0 0 0 0 0 0 0 0 127 0" result="hardAlpha"/>
<feOffset dy="2.65498"/>
<feGaussianBlur stdDeviation="4.97809"/>
<feComposite in2="hardAlpha" operator="out"/>
<feColorMatrix type="matrix" values="0 0 0 0 0 0 0 0 0 0 0 0 0 0 0 0 0 0 0.1 0"/>
<feBlend mode="normal" in2="effect1_backgroundBlur_1_456" result="effect2_dropShadow_1_456"/>
<feBlend mode="normal" in="SourceGraphic" in2="effect2_dropShadow_1_456" result="shape"/>
</filter>
<linearGradient id="paint0_linear_1_456" x1="75.3491" y1="8.88018" x2="86.8842" y2="37.709" gradientUnits="userSpaceOnUse">
<stop stop-color="white"/>
<stop offset="0.708333" stop-color="#9DDCFF" stop-opacity="0.69"/>
</linearGradient>
<linearGradient id="paint1_linear_1_456" x1="82.7757" y1="-0.919903" x2="98.7278" y2="49.3056" gradientUnits="userSpaceOnUse">
<stop stop-color="white"/>
<stop offset="0.713542" stop-color="#85C6EC" stop-opacity="0.71"/>
</linearGradient>
<linearGradient id="paint2_linear_1_456" x1="36.2814" y1="9.431" x2="55.3963" y2="57.0672" gradientUnits="userSpaceOnUse">
<stop stop-color="white"/>
<stop offset="0.708333" stop-color="#9DDCFF" stop-opacity="0.69"/>
</linearGradient>
<linearGradient id="paint3_linear_1_456" x1="48.5276" y1="-6.77529" x2="74.9691" y2="76.2385" gradientUnits="userSpaceOnUse">
<stop stop-color="white"/>
<stop offset="0.713542" stop-color="#85C6EC" stop-opacity="0.71"/>
</linearGradient>
</defs>
</svg>
