<svg width="64" height="64" viewBox="0 0 64 64" fill="none" xmlns="http://www.w3.org/2000/svg">
<path d="M32 52.1416C43.1241 52.1416 52.142 43.1237 52.142 31.9996C52.142 20.8755 43.1241 11.8576 32 11.8576C20.8759 11.8576 11.858 20.8755 11.858 31.9996C11.858 43.1237 20.8759 52.1416 32 52.1416Z" fill="url(#paint0_linear_1_409)" stroke="url(#paint1_linear_1_409)" stroke-width="1.32749"/>
<path fill-rule="evenodd" clip-rule="evenodd" d="M32 -0.000396729C31.0395 -0.000396729 30.2609 0.778237 30.2609 1.73873V7.30395C30.2609 8.26445 31.0395 9.04308 32 9.04308C32.9605 9.04308 33.7392 8.26445 33.7392 7.30395V1.73873C33.7392 0.778238 32.9605 -0.000396729 32 -0.000396729ZM32 54.9561C31.0395 54.9561 30.2609 55.7348 30.2609 56.6953V62.2605C30.2609 63.221 31.0395 63.9996 32 63.9996C32.9605 63.9996 33.7392 63.221 33.7392 62.2605V56.6953C33.7392 55.7348 32.9605 54.9561 32 54.9561ZM45.6243 4.92335C46.1046 4.09154 47.1682 3.80654 48 4.28678C48.8318 4.76703 49.1168 5.83067 48.6366 6.66248L45.854 11.4821C45.3737 12.3139 44.3101 12.5989 43.4783 12.1187C42.6465 11.6384 42.3615 10.5748 42.8417 9.74297L45.6243 4.92335ZM20.5217 51.8805C19.6899 51.4003 18.6263 51.6853 18.146 52.5171L15.3634 57.3367C14.8832 58.1685 15.1682 59.2322 16 59.7124C16.8318 60.1927 17.8954 59.9077 18.3757 59.0759L21.1583 54.2562C21.6385 53.4244 21.3535 52.3608 20.5217 51.8805ZM57.3371 15.363C58.169 14.8828 59.2326 15.1678 59.7128 15.9996C60.1931 16.8314 59.9081 17.8951 59.0763 18.3753L54.2567 21.1579C53.4248 21.6382 52.3612 21.3532 51.881 20.5213C51.4007 19.6895 51.6857 18.6259 52.5175 18.1456L57.3371 15.363ZM12.1191 43.4778C11.6388 42.646 10.5752 42.361 9.74337 42.8413L4.92375 45.6239C4.09193 46.1041 3.80693 47.1678 4.28718 47.9996C4.76743 48.8314 5.83106 49.1164 6.66287 48.6361L11.4825 45.8535C12.3143 45.3733 12.5993 44.3096 12.1191 43.4778ZM62.2609 30.2605C63.2214 30.2605 64 31.0391 64 31.9996C64 32.9601 63.2214 33.7387 62.2609 33.7387H56.6957C55.7352 33.7387 54.9565 32.9601 54.9565 31.9996C54.9565 31.0391 55.7352 30.2605 56.6957 30.2605H62.2609ZM9.04348 31.9996C9.04348 31.0391 8.26484 30.2605 7.30435 30.2605H1.73913C0.778635 30.2605 4.19859e-08 31.0391 0 31.9996C-4.19859e-08 32.9601 0.778633 33.7387 1.73913 33.7387H7.30435C8.26484 33.7387 9.04348 32.9601 9.04348 31.9996ZM59.0762 45.6239C59.9081 46.1041 60.1931 47.1678 59.7128 47.9996C59.2326 48.8314 58.1689 49.1164 57.3371 48.6362L52.5175 45.8535C51.6857 45.3733 51.4007 44.3097 51.8809 43.4778C52.3612 42.646 53.4248 42.361 54.2566 42.8413L59.0762 45.6239ZM12.1191 20.5213C12.5993 19.6895 12.3143 18.6259 11.4825 18.1456L6.66291 15.363C5.8311 14.8828 4.76746 15.1678 4.28722 15.9996C3.80697 16.8314 4.09197 17.8951 4.92378 18.3753L9.7434 21.1579C10.5752 21.6382 11.6388 21.3532 12.1191 20.5213ZM48.6366 57.3367C49.1168 58.1685 48.8318 59.2321 48 59.7124C47.1682 60.1926 46.1045 59.9076 45.6243 59.0758L42.8417 54.2562C42.3614 53.4244 42.6464 52.3608 43.4782 51.8805C44.3101 51.4003 45.3737 51.6853 45.8539 52.5171L48.6366 57.3367ZM20.5217 12.1187C21.3535 11.6384 21.6385 10.5748 21.1583 9.74298L18.3756 4.92336C17.8954 4.09155 16.8318 3.80655 16 4.28679C15.1681 4.76704 14.8831 5.83068 15.3634 6.66249L18.146 11.4821C18.6262 12.3139 19.6899 12.5989 20.5217 12.1187Z" fill="url(#paint2_linear_1_409)"/>
<defs>
<linearGradient id="paint0_linear_1_409" x1="42.9565" y1="15.304" x2="25.2774" y2="51.6299" gradientUnits="userSpaceOnUse">
<stop offset="0.182844" stop-color="#FFE600"/>
<stop offset="0.980542" stop-color="#F09000"/>
</linearGradient>
<linearGradient id="paint1_linear_1_409" x1="22.0505" y1="8.06685" x2="49.4791" y2="73.9493" gradientUnits="userSpaceOnUse">
<stop stop-color="#FFE600"/>
<stop offset="1" stop-color="#9C8D00"/>
</linearGradient>
<linearGradient id="paint2_linear_1_409" x1="55.4782" y1="8.34742" x2="7.99994" y2="63.9996" gradientUnits="userSpaceOnUse">
<stop stop-color="#FFE600"/>
<stop offset="1" stop-color="#AA9900"/>
</linearGradient>
</defs>
</svg>
